<svg width="16" height="18" viewBox="0 0 16 18" fill="none" xmlns="http://www.w3.org/2000/svg">
<path d="M3.11084 16.5C2.12918 16.5 1.33334 15.6833 1.33334 14.675V7.34C1.33334 6.78583 1.57918 6.26083 2.00001 5.915L6.88918 1.9C7.20156 1.64132 7.59443 1.49977 8.00001 1.49977C8.40559 1.49977 8.79846 1.64132 9.11084 1.9L13.9992 5.915C14.4208 6.26083 14.6667 6.78583 14.6667 7.34V14.675C14.6667 15.6833 13.8708 16.5 12.8892 16.5H3.11084Z" stroke="white" stroke-width="1.5" stroke-linecap="round" stroke-linejoin="round"/>
<path d="M5.91669 16.5V11.9167C5.91669 11.4746 6.09228 11.0507 6.40484 10.7382C6.7174 10.4256 7.14133 10.25 7.58335 10.25H8.41669C8.85871 10.25 9.28264 10.4256 9.5952 10.7382C9.90776 11.0507 10.0834 11.4746 10.0834 11.9167V16.5" stroke="white" stroke-width="1.5" stroke-linecap="round" stroke-linejoin="round"/>
</svg>
