<svg width="16" height="16" viewBox="0 0 16 16" fill="none" xmlns="http://www.w3.org/2000/svg">
<path d="M14.0976 11.6699C13.6088 11.1807 13.0375 10.7813 12.4101 10.4902C13.2949 9.77344 13.8594 8.67969 13.8594 7.45313C13.8594 5.28906 12.0547 3.51367 9.89061 3.54688C7.75975 3.58008 6.04296 5.31641 6.04296 7.45313C6.04296 8.67969 6.60936 9.77344 7.49218 10.4902C6.86466 10.7811 6.2934 11.1805 5.80468 11.6699C4.73827 12.7383 4.1328 14.1484 4.09374 15.6523C4.09322 15.6732 4.09687 15.6939 4.10449 15.7133C4.11211 15.7327 4.12354 15.7504 4.1381 15.7654C4.15266 15.7803 4.17006 15.7921 4.18928 15.8002C4.20849 15.8083 4.22914 15.8125 4.24999 15.8125H5.34374C5.42772 15.8125 5.49803 15.7461 5.49999 15.6621C5.5371 14.5293 5.99608 13.4688 6.80272 12.6641C7.2155 12.2491 7.70647 11.9201 8.24724 11.6962C8.788 11.4722 9.36781 11.3577 9.95311 11.3594C11.1426 11.3594 12.2617 11.8223 13.1035 12.6641C13.9082 13.4688 14.3672 14.5293 14.4062 15.6621C14.4082 15.7461 14.4785 15.8125 14.5625 15.8125H15.6562C15.6771 15.8125 15.6977 15.8083 15.7169 15.8002C15.7362 15.7921 15.7536 15.7803 15.7681 15.7654C15.7827 15.7504 15.7941 15.7327 15.8017 15.7133C15.8094 15.6939 15.813 15.6732 15.8125 15.6523C15.7734 14.1484 15.168 12.7383 14.0976 11.6699ZM9.95311 9.95313C9.28514 9.95313 8.65624 9.69336 8.18553 9.2207C7.94931 8.98634 7.76271 8.7068 7.63688 8.39875C7.51104 8.0907 7.44854 7.76046 7.45311 7.42774C7.45897 6.78711 7.71483 6.16797 8.1621 5.70899C8.63085 5.22852 9.2578 4.96094 9.92772 4.95313C10.5898 4.94727 11.2324 5.20508 11.7051 5.66797C12.1894 6.14258 12.4551 6.77734 12.4551 7.45313C12.4551 8.12109 12.1953 8.74805 11.7226 9.2207C11.4908 9.4537 11.215 9.6384 10.9112 9.76412C10.6075 9.88984 10.2818 9.95408 9.95311 9.95313ZM5.06053 7.96875C5.04296 7.79883 5.03319 7.62695 5.03319 7.45313C5.03319 7.14258 5.06249 6.83984 5.11718 6.54492C5.13085 6.47461 5.09374 6.40234 5.02928 6.37305C4.76366 6.25391 4.51952 6.08984 4.30858 5.88281C4.06003 5.64181 3.86444 5.35164 3.73429 5.03083C3.60415 4.71001 3.54231 4.36559 3.55272 4.01953C3.5703 3.39258 3.82225 2.79688 4.26171 2.34766C4.74413 1.85352 5.39257 1.58398 6.08202 1.5918C6.70507 1.59766 7.30663 1.83789 7.76171 2.26367C7.916 2.4082 8.04882 2.56836 8.16014 2.74023C8.19921 2.80078 8.27538 2.82617 8.34178 2.80273C8.68553 2.68359 9.04882 2.59961 9.42186 2.56055C9.53124 2.54883 9.59374 2.43164 9.54491 2.33398C8.91014 1.07813 7.61327 0.210938 6.11327 0.187501C3.94725 0.154297 2.14257 1.92969 2.14257 4.0918C2.14257 5.31836 2.70702 6.41211 3.59178 7.12891C2.97069 7.41602 2.39843 7.8125 1.90233 8.30859C0.832019 9.37695 0.22655 10.7871 0.187488 12.293C0.186967 12.3138 0.190623 12.3346 0.198241 12.354C0.20586 12.3734 0.217287 12.3911 0.231848 12.406C0.246409 12.4209 0.263811 12.4328 0.283027 12.4409C0.302244 12.449 0.322886 12.4531 0.343738 12.4531H1.43944C1.52343 12.4531 1.59374 12.3867 1.59569 12.3027C1.6328 11.1699 2.09178 10.1094 2.89843 9.30469C3.47264 8.73047 4.17577 8.33203 4.94335 8.13867C5.01952 8.11914 5.0703 8.04688 5.06053 7.96875Z" fill="white"/>
</svg>
