<svg width="36" height="34" viewBox="0 0 36 34" fill="none" xmlns="http://www.w3.org/2000/svg">
<rect width="36" height="34" rx="12" fill="white"/>
<path d="M28.0035 16.9505L22.2045 14.8663L19.7805 11.8228C19.5697 11.5651 19.3042 11.3575 19.0033 11.2152C18.7023 11.0729 18.3734 10.9994 18.0405 11H12.0435C11.6767 11 11.3156 11.0897 10.9914 11.2612C10.6672 11.4327 10.3899 11.6808 10.1835 11.984L8.1495 14.9713C7.72637 15.5932 7.50007 16.328 7.5 17.0802V23C7.5 23.1989 7.57902 23.3897 7.71967 23.5303C7.86032 23.671 8.05109 23.75 8.25 23.75H9.8565C10.0197 24.3937 10.3928 24.9646 10.9168 25.3724C11.4409 25.7802 12.086 26.0016 12.75 26.0016C13.414 26.0016 14.0591 25.7802 14.5832 25.3724C15.1072 24.9646 15.4803 24.3937 15.6435 23.75H20.3565C20.5197 24.3937 20.8928 24.9646 21.4168 25.3724C21.9409 25.7802 22.586 26.0016 23.25 26.0016C23.914 26.0016 24.5591 25.7802 25.0832 25.3724C25.6072 24.9646 25.9803 24.3937 26.1435 23.75H27.75C27.9489 23.75 28.1397 23.671 28.2803 23.5303C28.421 23.3897 28.5 23.1989 28.5 23V17.6562C28.5 17.5018 28.4523 17.3511 28.3634 17.2248C28.2745 17.0985 28.1489 17.0027 28.0035 16.9505ZM12.75 24.5C12.4533 24.5 12.1633 24.412 11.9166 24.2472C11.67 24.0824 11.4777 23.8481 11.3642 23.574C11.2506 23.2999 11.2209 22.9983 11.2788 22.7074C11.3367 22.4164 11.4796 22.1491 11.6893 21.9393C11.8991 21.7296 12.1664 21.5867 12.4574 21.5288C12.7483 21.4709 13.0499 21.5006 13.324 21.6142C13.5981 21.7277 13.8324 21.92 13.9972 22.1666C14.162 22.4133 14.25 22.7033 14.25 23C14.2494 23.3976 14.0912 23.7788 13.81 24.06C13.5288 24.3412 13.1476 24.4994 12.75 24.5ZM23.25 24.5C22.9533 24.5 22.6633 24.412 22.4166 24.2472C22.17 24.0824 21.9777 23.8481 21.8642 23.574C21.7506 23.2999 21.7209 22.9983 21.7788 22.7074C21.8367 22.4164 21.9796 22.1491 22.1893 21.9393C22.3991 21.7296 22.6664 21.5867 22.9574 21.5288C23.2483 21.4709 23.5499 21.5006 23.824 21.6142C24.0981 21.7277 24.3324 21.92 24.4972 22.1666C24.662 22.4133 24.75 22.7033 24.75 23C24.7494 23.3976 24.5912 23.7788 24.31 24.06C24.0288 24.3412 23.6476 24.4994 23.25 24.5ZM27 22.25H26.1435C25.9803 21.6063 25.6072 21.0354 25.0832 20.6276C24.5591 20.2198 23.914 19.9984 23.25 19.9984C22.586 19.9984 21.9409 20.2198 21.4168 20.6276C20.8928 21.0354 20.5197 21.6063 20.3565 22.25H15.6435C15.4803 21.6063 15.1072 21.0354 14.5832 20.6276C14.0591 20.2198 13.414 19.9984 12.75 19.9984C12.086 19.9984 11.4409 20.2198 10.9168 20.6276C10.3928 21.0354 10.0197 21.6063 9.8565 22.25H9V17.0802C9.00001 16.6287 9.1359 16.1876 9.39 15.8142L11.4232 12.8285C11.492 12.7273 11.5845 12.6445 11.6926 12.5872C11.8007 12.53 11.9212 12.5 12.0435 12.5H18.0405C18.1496 12.5 18.2574 12.5239 18.3564 12.5698C18.4554 12.6158 18.5431 12.6829 18.6135 12.7662L21.1635 15.9673C21.2502 16.0761 21.3655 16.1587 21.4965 16.2057L27 18.1835V22.25Z" fill="#2E0082"/>
</svg>
